# xmcd
#
# Track frame offsets:
#	150
#	20802
#	35579
#	51734
#	67890
#	87447
#	112316
#	133090
#	154773
#	172614
#	196209
#	217992
#	263285
#
# Disc length: 3705 seconds
#
# Revision: 0
# Processed by: cddbd v1.5.2PL0 Copyright (c) Steve Scherf et al.
# Submitted via: VUPlayer 2.49
#
DISCID=b50e770d
DTITLE=מיקי שביב - בדיוק דבר כזה
DYEAR=1999
DGENRE=Acoustic
TTITLE0=מה לך
TTITLE1=בינתיים
TTITLE2=נועה
TTITLE3=אני לא הכאב שלך
TTITLE4=מה שהיה
TTITLE5=מלך הזמנים הקטנים
TTITLE6=פנוי להסביר
TTITLE7=לא מבין מילה
TTITLE8=בדיוק *דבר כזה
TTITLE9=שיר נושא
TTITLE10=בדיוק דבר *כזה
TTITLE11=עוד יום במטבחה של אלוהים
TTITLE12=התרשי לי להתאהב בך שנית
EXTD=
EXTT0=
EXTT1=
EXTT2=
EXTT3=
EXTT4=
EXTT5=
EXTT6=
EXTT7=
EXTT8=
EXTT9=
EXTT10=
EXTT11=
EXTT12=
PLAYORDER=
